<svg width="280" height="60" viewBox="0 0 280 60" fill="none" xmlns="http://www.w3.org/2000/svg">
  <!-- 배경 -->
  <rect width="280" height="60" rx="8" fill="url(#gradient1)"/>

  <!-- 그라데이션 정의 -->
  <defs>
    <linearGradient id="gradient1" x1="0" y1="0" x2="280" y2="60">
      <stop offset="0%" style="stop-color:#FCD34D;stop-opacity:0.1" />
      <stop offset="100%" style="stop-color:#F59E0B;stop-opacity:0.2" />
    </linearGradient>
    <linearGradient id="textGradient" x1="0%" y1="0%" x2="100%" y2="0%">
      <stop offset="0%" style="stop-color:#F59E0B" />
      <stop offset="100%" style="stop-color:#FBBF24" />
    </linearGradient>
  </defs>

  <!-- 아이콘: 건물 -->
  <g transform="translate(15, 15)">
    <rect x="0" y="8" width="12" height="22" fill="url(#textGradient)" rx="1"/>
    <rect x="14" y="0" width="12" height="30" fill="url(#textGradient)" rx="1"/>
    <rect x="2" y="12" width="2" height="3" fill="#000" opacity="0.3"/>
    <rect x="2" y="17" width="2" height="3" fill="#000" opacity="0.3"/>
    <rect x="2" y="22" width="2" height="3" fill="#000" opacity="0.3"/>
    <rect x="7" y="12" width="2" height="3" fill="#000" opacity="0.3"/>
    <rect x="7" y="17" width="2" height="3" fill="#000" opacity="0.3"/>
    <rect x="7" y="22" width="2" height="3" fill="#000" opacity="0.3"/>
    <rect x="16" y="4" width="2" height="3" fill="#000" opacity="0.3"/>
    <rect x="16" y="9" width="2" height="3" fill="#000" opacity="0.3"/>
    <rect x="16" y="14" width="2" height="3" fill="#000" opacity="0.3"/>
    <rect x="16" y="19" width="2" height="3" fill="#000" opacity="0.3"/>
    <rect x="16" y="24" width="2" height="3" fill="#000" opacity="0.3"/>
    <rect x="21" y="4" width="2" height="3" fill="#000" opacity="0.3"/>
    <rect x="21" y="9" width="2" height="3" fill="#000" opacity="0.3"/>
    <rect x="21" y="14" width="2" height="3" fill="#000" opacity="0.3"/>
    <rect x="21" y="19" width="2" height="3" fill="#000" opacity="0.3"/>
    <rect x="21" y="24" width="2" height="3" fill="#000" opacity="0.3"/>
  </g>

  <!-- 텍스트: 상가다이찌투자연구소 -->
  <text x="55" y="38" font-family="Pretendard, Arial, sans-serif" font-size="22" font-weight="900" fill="url(#textGradient)" letter-spacing="-0.5">상가다이찌투자연구소</text>
</svg>
